Patient4_TMGait_0pt2_02_right_10_GRF.mot
version=1
nRows=78
nColumns=19
inDegrees=no
endheader
time	F1x	F1y	F1z	M1x	M1y	M1z	F2x	F2y	F2z	M2x	M2y	M2z	EC1x	EC1y	EC1z	EC2x	EC2y	EC2z
21.53	-24.0448	685.5657	40.5292	-249.8396	-50.2793	762.0219	4.8137	127.009	-11.5093	47.1864	8.1291	118.1148	-0.0592	0.0182	-0.0073	-0.0462	0.0165	0.9585
21.5556	-22.8968	711.932	41.462	-259.9046	-50.4999	788.1566	4.433	115.2884	-10.6211	42.6347	7.7732	107.8918	-0.0592	0.0182	-0.0073	-0.0462	0.0165	0.9585
21.5813	-21.3129	740.952	42.5688	-270.9346	-50.6387	816.3474	3.4928	100.8482	-9.4682	37.139	7.318	94.9645	-0.0592	0.0182	-0.0073	-0.0462	0.0165	0.9585
21.6069	-19.2462	769.31	43.7443	-281.6755	-50.5912	843.0869	2.1266	84.61	-8.1072	31.051	6.7511	80.1529	-0.0592	0.0182	-0.0073	-0.0462	0.0165	0.9585
21.6326	-16.7194	793.5673	44.8622	-290.8337	-50.2668	864.8377	0.60774	67.7413	-6.6225	24.7979	6.0525	64.5577	-0.0592	0.0182	-0.0073	-0.0462	0.0165	0.9585
21.6582	-13.8304	811.0806	45.7832	-297.4185	-49.5899	878.9772	-0.7328	51.4339	-5.1126	18.806	5.2048	49.3352	-0.0592	0.0182	-0.0073	-0.0462	0.0165	0.9585
21.6839	-10.7329	820.5285	46.3919	-300.9353	-48.5244	884.298	-1.5942	36.7335	-3.6748	13.442	4.2058	35.5145	-0.0592	0.0182	-0.0073	-0.0462	0.0165	0.9585
21.7095	-7.5856	821.951	46.6318	-301.4023	-47.0911	880.9954	-1.8304	24.4163	-2.4021	8.9728	3.1037	23.8659	-0.0592	0.0182	-0.0073	-0.0462	0.0165	0.9585
21.7351	-4.4846	816.5233	46.5088	-299.275	-45.3446	870.388	-1.5628	14.8873	-1.3687	5.5319	2.0211	14.8009	-0.0592	0.0182	-0.0073	-0.0462	0.0165	0.9585
21.7608	-1.4195	806.2441	46.0733	-295.3281	-43.3414	854.5598	-1.0472	8.0798	-0.60009	3.0836	1.0811	8.2744	-0.0592	0.0182	-0.0073	-0.0462	0.0165	0.9585
21.7864	1.7136	793.5136	45.4015	-290.49	-41.128	835.9335	-0.46424	3.5345	-0.069877	1.4545	0.33079	3.8511	-0.0592	0.0182	-0.0073	-0.0462	0.0165	0.9585
21.8121	5.0358	780.6134	44.5805	-285.6407	-38.7528	816.7923	0.080163	0.63413	0.2736	0.41638	-0.23418	0.93921	-0.0592	0.0182	-0.0073	-0.0462	0.0165	0.9585
21.8377	8.6142	769.2838	43.7069	-281.4486	-36.2897	798.8946	0.53294	-1.2284	0.48663	-0.25379	-0.64427	-1.0343	-0.0592	0.0182	-0.0073	-0.0462	0.0165	0.9585
21.8634	12.4545	760.5439	42.8832	-278.3021	-33.8368	783.3163	0.87325	-2.5403	0.61726	-0.73366	-0.93272	-2.5234	-0.0592	0.0182	-0.0073	-0.0462	0.0165	0.9585
21.889	16.4984	754.7052	42.2079	-276.3107	-31.5041	770.4898	1.0929	-3.5958	0.6954	-1.1293	-1.1197	-3.7844	-0.0592	0.0182	-0.0073	-0.0462	0.0165	0.9585
21.9146	20.593	751.4873	41.784	-275.3437	-29.4362	760.3253	1.1901	-4.4494	0.73012	-1.4592	-1.2104	-4.8269	-0.0592	0.0182	-0.0073	-0.0462	0.0165	0.9585
21.9403	24.5054	750.2031	41.7278	-275.1029	-27.8177	752.3742	1.1616	-4.8753	0.71079	-1.6402	-1.1917	-5.3699	-0.0592	0.0182	-0.0073	-0.0462	0.0165	0.9585
21.9659	27.9976	749.9539	42.1385	-275.2044	-26.8208	745.9676	0.99924	-4.3333	0.60671	-1.4742	-1.0274	-4.7993	-0.0592	0.0182	-0.0073	-0.0462	0.0165	0.9585
21.9916	30.8699	749.7654	43.0601	-275.2431	-26.552	740.3099	0.69348	-1.957	0.37262	-0.64415	-0.66098	-2.1476	-0.0592	0.0182	-0.0073	-0.0462	0.0165	0.9585
22.0172	32.9719	748.5863	44.4659	-274.8024	-27.0356	734.463	0.23669	3.422	-0.048933	1.2767	-0.022041	3.8836	-0.0592	0.0182	-0.0073	-0.0462	0.0165	0.9585
22.0429	34.2199	745.2076	46.2347	-273.4309	-28.1883	727.2592	-0.36347	13.179	-0.72329	4.794	0.96203	14.8184	-0.0592	0.0182	-0.0073	-0.0462	0.0165	0.9585
22.0685	34.6252	738.231	48.1387	-270.63	-29.7965	717.28	-1.0688	28.6876	-1.7075	10.4181	2.3457	32.1712	-0.0592	0.0182	-0.0073	-0.0462	0.0165	0.9585
22.0941	34.2735	726.0934	49.891	-265.8543	-31.5662	702.9213	-1.7992	50.9557	-3.0287	18.5332	4.1361	57.0327	-0.0592	0.0182	-0.0073	-0.0462	0.0165	0.9585
22.1198	33.2926	707.2659	51.2047	-258.5741	-33.1867	682.6151	-2.5793	80.2157	-4.678	29.2407	6.335	89.6116	-0.0592	0.0182	-0.0073	-0.0462	0.0165	0.9585
22.1454	31.8247	680.6582	51.8278	-248.4226	-34.3755	655.2369	-3.8071	115.709	-6.7462	42.2625	9.1869	129.0245	-0.0592	0.0182	-0.0073	-0.0462	0.0165	0.9585
22.1711	29.9968	646.0662	51.5698	-235.3598	-34.9134	620.5492	-5.82	155.9609	-9.3437	57.0472	12.9358	173.6101	-0.0592	0.0182	-0.0073	-0.0462	0.0165	0.9585
22.1967	27.9141	604.3592	50.3567	-219.7356	-34.6926	579.3718	-8.555	199.6704	-12.3993	73.1157	17.486	221.8633	-0.0592	0.0182	-0.0073	-0.0462	0.0165	0.9585
22.2224	25.6563	557.2209	48.225	-202.1889	-33.7134	533.3172	-11.7105	245.9581	-15.6878	90.1524	22.4904	272.7166	-0.0592	0.0182	-0.0073	-0.0462	0.0165	0.9585
22.248	23.2948	506.7417	45.2903	-183.5001	-32.046	484.3857	-14.9357	293.8359	-18.9447	107.7979	27.5343	324.9921	-0.0592	0.0182	-0.0073	-0.0462	0.0165	0.9585
22.2736	20.932	455.0817	41.7327	-164.4685	-29.8026	434.617	-17.9238	342.047	-21.979	125.5781	32.2912	377.2368	-0.0592	0.0182	-0.0073	-0.0462	0.0165	0.9585
22.2993	18.73	404.1567	37.7753	-145.7922	-27.1161	385.773	-20.4828	389.3193	-24.6964	142.9966	36.5756	428.0088	-0.0592	0.0182	-0.0073	-0.0462	0.0165	0.9585
22.3249	16.9003	355.3036	33.6421	-127.9513	-24.1122	339.0475	-22.5244	434.7502	-27.0785	159.683	40.315	476.2805	-0.0592	0.0182	-0.0073	-0.0462	0.0165	0.9585
22.3506	15.649	309.0935	29.5126	-111.1458	-20.885	294.9154	-23.9924	477.981	-29.1657	175.4626	43.5018	521.6029	-0.0592	0.0182	-0.0073	-0.0462	0.0165	0.9585
22.3762	15.1003	265.4332	25.4733	-95.3326	-17.4738	253.2395	-24.8403	519.0952	-31.0244	190.3275	46.1535	564.0013	-0.0592	0.0182	-0.0073	-0.0462	0.0165	0.9585
22.4019	15.2506	223.9128	21.529	-80.3521	-13.8897	213.608	-25.0331	558.3922	-32.7376	204.3542	48.3111	603.7539	-0.0592	0.0182	-0.0073	-0.0462	0.0165	0.9585
22.4275	15.9373	184.209	17.6729	-66.0741	-10.1864	175.7132	-24.5568	596.0602	-34.4207	217.5808	50.0673	641.074	-0.0592	0.0182	-0.0073	-0.0462	0.0165	0.9585
22.4531	16.8178	146.4043	13.9545	-52.5107	-6.5313	139.6393	-23.4479	631.9322	-36.2033	229.9185	51.5645	675.8784	-0.0592	0.0182	-0.0073	-0.0462	0.0165	0.9585
22.4788	17.3857	111.1448	10.4919	-39.8762	-3.2145	106.0077	-21.8168	665.4027	-38.1833	241.13	52.9551	707.7026	-0.0592	0.0182	-0.0073	-0.0462	0.0165	0.9585
22.5044	17.0859	79.5426	7.4388	-28.555	-0.57504	75.8837	-19.8327	695.5101	-40.3778	250.8731	54.3365	735.7642	-0.0592	0.0182	-0.0073	-0.0462	0.0165	0.9585
22.5301	15.5802	52.7687	4.9178	-18.9587	1.1555	50.3811	-17.6772	721.2081	-42.6811	258.8134	55.6859	759.2062	-0.0592	0.0182	-0.0073	-0.0462	0.0165	0.9585
22.5557	12.9851	31.5455	2.9606	-11.3437	1.9903	30.1722	-15.5165	741.7344	-44.8661	264.7605	56.8543	777.4496	-0.0592	0.0182	-0.0073	-0.0462	0.0165	0.9585
22.5814	9.797	15.9072	1.5274	-5.7245	2.1418	15.2706	-13.5102	756.8936	-46.6583	268.755	57.6441	790.4673	-0.0592	0.0182	-0.0073	-0.0462	0.0165	0.9585
22.607	6.6	5.3328	0.55087	-1.9186	1.8777	5.1732	-11.8106	767.1453	-47.8305	271.0763	57.8986	798.8663	-0.0592	0.0182	-0.0073	-0.0462	0.0165	0.9585
22.6326	3.8256	-1.0469	-0.044309	0.38187	1.4191	-0.94744	-10.5581	773.4784	-48.2547	272.1809	57.5519	803.7509	-0.0592	0.0182	-0.0073	-0.0462	0.0165	0.9585
22.6583	1.6675	-4.2665	-0.34496	1.5448	0.91445	-4.0641	-9.8653	777.2649	-47.8925	272.6464	56.614	806.5518	-0.0592	0.0182	-0.0073	-0.0462	0.0165	0.9585
22.6839	0.14288	-5.3253	-0.44007	1.9285	0.45108	-5.1147	-9.7905	780.1087	-46.7603	273.1229	55.1368	808.8606	-0.0592	0.0182	-0.0073	-0.0462	0.0165	0.9585
22.7096	-0.82956	-5.0689	-0.406	1.8363	0.06874	-4.8952	-10.3105	783.5773	-44.8965	274.2405	53.17	812.1533	-0.0592	0.0182	-0.0073	-0.0462	0.0165	0.9585
22.7352	-1.3708	-4.138	-0.30186	1.4993	-0.22254	-4.017	-11.3038	788.9101	-42.3399	276.4998	50.7255	817.4938	-0.0592	0.0182	-0.0073	-0.0462	0.0165	0.9585
22.7609	-1.6062	-2.9714	-0.17087	1.0752	-0.42788	-2.9033	-12.5722	796.7769	-39.1498	280.1652	47.7956	825.3138	-0.0592	0.0182	-0.0073	-0.0462	0.0165	0.9585
22.7865	-1.6446	-1.843	-0.042326	0.6613	-0.56136	-1.8218	-13.8974	807.0648	-35.4381	285.1651	44.3973	835.2483	-0.0592	0.0182	-0.0073	-0.0462	0.0165	0.9585
22.8121	-1.5734	-0.90451	0.064087	0.31124	-0.63939	-0.92206	-15.0561	818.9245	-31.3897	291.0942	40.5988	846.2131	-0.0592	0.0182	-0.0073	-0.0462	0.0165	0.9585
22.8378	-1.4561	-0.22363	0.13732	0.051452	-0.67205	-0.2741	-15.8203	830.9748	-27.2653	297.2921	36.5341	856.6408	-0.0592	0.0182	-0.0073	-0.0462	0.0165	0.9585
22.8634	-1.3315	0.17579	0.17442	-0.10786	-0.66825	0.096882	-15.9958	841.4593	-23.3781	302.9321	32.4071	864.68	-0.0592	0.0182	-0.0073	-0.0462	0.0165	0.9585
22.8891	-1.2195	0.29203	0.17777	-0.16662	-0.63476	0.18605	-15.4396	848.4617	-20.0547	307.1411	28.4726	868.4225	-0.0592	0.0182	-0.0073	-0.0462	0.0165	0.9585
22.9147	-1.127	0.135	0.14903	-0.12851	-0.57386	-0.0057959	-14.0812	850.3043	-17.5533	309.1758	24.9691	866.3062	-0.0592	0.0182	-0.0073	-0.0462	0.0165	0.9585
22.9404	-1.0541	-0.28293	0.088127	0.0026372	-0.48539	-0.47064	-11.972	846.0022	-16.0053	308.6022	22.0756	857.5583	-0.0592	0.0182	-0.0073	-0.0462	0.0165	0.9585
22.966	-0.99723	-0.94274	-0.0049607	0.22134	-0.36803	-1.1874	-9.2811	835.5813	-15.4166	305.4065	19.9003	842.4757	-0.0592	0.0182	-0.0073	-0.0462	0.0165	0.9585
22.9916	-0.94931	-1.8031	-0.1294	0.51495	-0.21927	-2.1108	-6.2497	820.0651	-15.6966	299.9804	18.4827	822.3641	-0.0592	0.0182	-0.0073	-0.0462	0.0165	0.9585
23.0173	-0.90336	-2.7809	-0.28017	0.85541	-0.041103	-3.1537	-3.1364	801.2211	-16.6942	293.0169	17.7998	799.2371	-0.0592	0.0182	-0.0073	-0.0462	0.0165	0.9585
23.0429	-0.85677	-3.7199	-0.44118	1.189	0.15242	-4.1441	-0.17864	781.1897	-18.2332	285.3623	17.7832	775.41	-0.0592	0.0182	-0.0073	-0.0462	0.0165	0.9585
23.0686	-0.80991	-4.3504	-0.58155	1.4248	0.32895	-4.7865	2.4307	762.0993	-20.1303	277.8651	18.3314	753.1006	-0.0592	0.0182	-0.0073	-0.0462	0.0165	0.9585
23.0942	-0.76645	-4.2533	-0.65416	1.4241	0.43364	-4.6248	4.5464	745.7159	-22.213	271.2424	19.3249	734.0719	-0.0592	0.0182	-0.0073	-0.0462	0.0165	0.9585
23.1199	-0.74154	-2.8392	-0.589	0.99197	0.38121	-3.0203	6.0796	733.1692	-24.3273	265.9765	20.6333	719.3749	-0.0592	0.0182	-0.0073	-0.0462	0.0165	0.9585
23.1455	-0.76515	0.64349	-0.28973	-0.12235	0.054963	0.84066	7.0033	724.8036	-26.3304	262.257	22.1081	709.2277	-0.0592	0.0182	-0.0073	-0.0462	0.0165	0.9585
23.1711	-0.88096	7.0528	0.36127	-2.206	-0.69056	7.8859	7.3568	720.1724	-28.0786	259.9777	23.5734	703.0318	-0.0592	0.0182	-0.0073	-0.0462	0.0165	0.9585
23.1968	-1.1496	17.2215	1.4903	-5.5397	-2.0197	19.0104	7.2691	718.2058	-29.4287	258.7944	24.8225	699.5633	-0.0592	0.0182	-0.0073	-0.0462	0.0165	0.9585
23.2224	-1.6508	31.7296	3.2056	-10.3216	-4.083	34.8174	6.9702	717.336	-30.2961	258.1593	25.6726	697.1325	-0.0592	0.0182	-0.0073	-0.0462	0.0165	0.9585
23.2481	-2.4995	50.6288	5.5785	-16.5721	-6.9977	55.327	6.719	715.6072	-30.688	257.3555	26.0288	693.735	-0.0592	0.0182	-0.0073	-0.0462	0.0165	0.9585
23.2737	-3.7567	73.1783	8.623	-24.041	-10.797	79.7122	6.6689	710.9663	-30.6587	255.608	25.8849	687.3673	-0.0592	0.0182	-0.0073	-0.0462	0.0165	0.9585
23.2994	-5.396	97.722	12.1639	-32.1676	-15.2802	106.1904	6.8222	701.7616	-30.2941	252.273	25.3211	676.4993	-0.0592	0.0182	-0.0073	-0.0462	0.0165	0.9585
23.325	-7.2833	122.0295	15.8111	-40.1971	-19.9829	132.4057	7.1128	687.3043	-29.7186	247.0496	24.481	660.5627	-0.0592	0.0182	-0.0073	-0.0462	0.0165	0.9585
23.3506	-9.2548	144.4256	19.0999	-47.5623	-24.3479	156.614	7.5014	668.1537	-29.077	240.0905	23.5222	640.1744	-0.0592	0.0182	-0.0073	-0.0462	0.0165	0.9585
23.3763	-11.2171	164.5078	21.7318	-54.1271	-28.0149	178.4171	7.9672	645.7487	-28.4972	231.8805	22.5827	616.7643	-0.0592	0.0182	-0.0073	-0.0462	0.0165	0.9585
23.4019	-13.1165	182.6001	23.6591	-60.0036	-30.8988	198.1524	8.461	621.7041	-28.0546	222.9898	21.7642	591.8989	-0.0592	0.0182	-0.0073	-0.0462	0.0165	0.9585
23.4276	-14.8677	199.168	24.9801	-65.3549	-33.0568	216.2465	8.9212	597.3965	-27.7708	213.9268	21.1232	566.8833	-0.0592	0.0182	-0.0073	-0.0462	0.0165	0.9585
23.4532	-16.366	214.5227	25.8282	-70.2993	-34.5777	232.9265	9.3262	573.9042	-27.6088	205.1146	20.6466	542.7122	-0.0592	0.0182	-0.0073	-0.0462	0.0165	0.9585
23.4789	-17.5256	228.8185	26.3162	-74.9091	-35.5385	248.2453	9.7209	552.0539	-27.4945	196.8981	20.2671	520.1267	-0.0592	0.0182	-0.0073	-0.0462	0.0165	0.9585
23.5045	-18.2988	242.2699	26.5335	-79.2747	-36.0112	262.3215	10.1984	532.4729	-27.3637	189.5512	19.908	499.673	-0.0592	0.0182	-0.0073	-0.0462	0.0165	0.9585
